<svg width="137" height="164" viewBox="0 0 137 164" fill="none" xmlns="http://www.w3.org/2000/svg">
<path d="M88.6602 54.3695C82.3899 55.0452 74.7223 42.6019 73.3673 31.4534C71.3242 14.6476 83.7766 2.08038 85.9043 0C89.3024 3.3364 98.0497 12.8503 99.0025 26.9388C99.7929 38.6286 95.2269 53.6619 88.6602 54.3695Z" fill="#309C52"/>
<path d="M87.0619 41.0734C83.4592 35.883 90.661 23.1637 99.7648 16.6182C113.487 6.75058 130.46 11.672 133.3 12.5424C132.013 17.1313 127.891 29.3942 116.025 36.9975C106.176 43.3094 90.8339 46.5114 87.0619 41.0734Z" fill="#309C52"/>
<path d="M68.6426 164C106.318 164 136.861 133.376 136.861 95.5986C136.861 57.8215 106.318 27.1971 68.6426 27.1971C30.9667 27.1971 0.424377 57.8215 0.424377 95.5986C0.424377 133.376 30.9667 164 68.6426 164Z" fill="#F6A117"/>
<path d="M0.466705 97.9585C1.54998 99.4763 3.18019 101.617 5.36439 103.991C5.36439 103.991 17.2663 116.926 33.9459 122.138C56.6806 129.242 90.1917 118.784 106.282 92.6549C118.509 72.7958 115.746 51.8929 114.511 44.9689C119.624 49.7099 129.828 60.5045 134.444 77.5014C140.082 98.2699 135.686 122.078 120.763 139.732C101.85 162.111 71.4019 168.232 47.4216 160.625C28.5084 154.624 17.6333 141.36 14.2882 136.934C2.0334 120.726 0.674892 103.906 0.466705 97.9585Z" fill="#E4791D"/>
<path opacity="0.8" d="M44.3678 61.9882C57.9345 52.2394 66.2279 40.5524 62.8917 35.8846C59.5554 31.2168 45.8528 35.3358 32.2861 45.0846C18.7194 54.8335 10.4259 66.5205 13.7622 71.1883C17.0985 75.8561 30.801 71.7371 44.3678 61.9882Z" fill="#FFD453"/>
<path d="M38.3284 45.305C39.0059 46.4831 41.9523 44.4205 44.8387 42.7469C47.7251 41.077 51.5712 39.0284 50.8937 37.8538C50.2162 36.6792 46.5818 38.4553 43.6954 40.1252C40.809 41.7952 37.6509 44.1268 38.3284 45.305Z" fill="white"/>
<path d="M24.447 124.342C27.4832 124.342 29.9445 121.874 29.9445 118.83C29.9445 115.785 27.4832 113.317 24.447 113.317C21.4108 113.317 18.9495 115.785 18.9495 118.83C18.9495 121.874 21.4108 124.342 24.447 124.342Z" fill="#CC6615"/>
<path d="M12.718 102.806C14.3978 102.806 15.7596 101.211 15.7596 99.2429C15.7596 97.2752 14.3978 95.68 12.718 95.68C11.0381 95.68 9.67633 97.2752 9.67633 99.2429C9.67633 101.211 11.0381 102.806 12.718 102.806Z" fill="#CC6615"/>
<path d="M89.5319 154.773C94.8112 154.773 99.0909 150.482 99.0909 145.188C99.0909 139.895 94.8112 135.603 89.5319 135.603C84.2526 135.603 79.973 139.895 79.973 145.188C79.973 150.482 84.2526 154.773 89.5319 154.773Z" fill="#CC6615"/>
<path d="M98.0675 145.192C100.708 145.192 102.849 143.045 102.849 140.398C102.849 137.75 100.708 135.603 98.0675 135.603C95.4269 135.603 93.2863 137.75 93.2863 140.398C93.2863 143.045 95.4269 145.192 98.0675 145.192Z" fill="#CC6615"/>
<path d="M95.1916 122.523C98.2278 122.523 100.689 120.055 100.689 117.011C100.689 113.967 98.2278 111.499 95.1916 111.499C92.1554 111.499 89.694 113.967 89.694 117.011C89.694 120.055 92.1554 122.523 95.1916 122.523Z" fill="#CC6615"/>
<path d="M50.9713 140.398C52.6512 140.398 54.0129 138.802 54.0129 136.835C54.0129 134.867 52.6512 133.272 50.9713 133.272C49.2914 133.272 47.9297 134.867 47.9297 136.835C47.9297 138.802 49.2914 140.398 50.9713 140.398Z" fill="#CC6615"/>
<path d="M125.167 115.061C127.129 115.061 128.72 113.466 128.72 111.499C128.72 109.531 127.129 107.936 125.167 107.936C123.205 107.936 121.614 109.531 121.614 111.499C121.614 113.466 123.205 115.061 125.167 115.061Z" fill="#CC6615"/>
<path d="M65.721 127.183C66.5044 127.183 67.1394 126.546 67.1394 125.761C67.1394 124.975 66.5044 124.338 65.721 124.338C64.9375 124.338 64.3025 124.975 64.3025 125.761C64.3025 126.546 64.9375 127.183 65.721 127.183Z" fill="#CC6615"/>
<path d="M76.3914 133.272C77.1748 133.272 77.8099 132.635 77.8099 131.85C77.8099 131.064 77.1748 130.427 76.3914 130.427C75.6079 130.427 74.9729 131.064 74.9729 131.85C74.9729 132.635 75.6079 133.272 76.3914 133.272Z" fill="#CC6615"/>
<path d="M98.0674 81.05C98.8508 81.05 99.4859 80.4132 99.4859 79.6277C99.4859 78.8422 98.8508 78.2054 98.0674 78.2054C97.284 78.2054 96.6489 78.8422 96.6489 79.6277C96.6489 80.4132 97.284 81.05 98.0674 81.05Z" fill="#CC6615"/>
<path d="M114.331 97.1023C115.114 97.1023 115.749 96.4655 115.749 95.68C115.749 94.8944 115.114 94.2577 114.331 94.2577C113.547 94.2577 112.912 94.8944 112.912 95.68C112.912 96.4655 113.547 97.1023 114.331 97.1023Z" fill="#CC6615"/>
<path d="M99.5816 70.7064C102.618 70.7064 105.079 68.2384 105.079 65.1941C105.079 62.1497 102.618 59.6818 99.5816 59.6818C96.5454 59.6818 94.084 62.1497 94.084 65.1941C94.084 68.2384 96.5454 70.7064 99.5816 70.7064Z" fill="#CC6615"/>
</svg>
