<svg width="175" height="61" viewBox="0 0 175 61" fill="none" xmlns="http://www.w3.org/2000/svg">

<path d="M14.7598 24.9311C12.4085 25.1113 11.7748 24.6607 11.5916 22.5791C11.5466 21.4918 11.5466 20.3624 11.5916 19.275C11.6367 18.1877 12.1802 17.647 13.4475 17.5088C14.94 17.3736 16.3874 17.3286 17.8349 17.2385C20.0511 17.2385 22.3124 17.2385 24.5766 17.3286C26.8379 17.3736 27.6997 18.1877 27.8349 20.1341C28.1051 23.4833 27.4715 26.6943 25.934 29.8181C21.952 38.0544 10.5076 37.9643 5.12317 32.0349C-1.48344 24.7028 -1.97894 10.7204 5.2583 4.07007C13.943 -3.98597 27.3814 0.856066 27.7418 11.7627C27.7868 13.1654 27.3334 13.619 25.7958 14.1596C24.5736 14.5231 23.3544 14.5681 22.1772 14.5231C20.91 14.478 20.0961 13.9794 19.6877 12.9852C19.5075 12.4866 19.3244 11.9459 19.0991 11.4022C17.4295 7.55742 13.2223 8.05303 10.8259 10.8135C7.38743 14.8415 8.20124 22.9846 11.1892 26.1986C13.8589 29.0942 17.6577 27.8267 18.3364 24.7508C17.0241 24.8409 15.8919 24.8409 14.7598 24.9311Z" fill="#E4791D"/>
<path d="M40.3664 17.5569C39.7778 26.9225 47.4234 28.914 50.1832 23.258C52.4895 18.416 51.949 8.0981 51.6757 2.89561C51.6306 1.58298 52.2643 0.723908 53.4865 0.405511C55.1141 -0.00299795 56.7448 0.0420582 58.3273 0.495623C59.2763 0.720904 60 1.39975 60.1381 2.39699C61.8559 15.0217 62.039 36.153 45.4805 36.3813C37.8799 36.4714 33.8979 31.9929 32.0451 26.1085C30.1442 19.9088 30.5526 13.0753 30.5075 6.87557C30.5075 5.15743 30.5075 0.949188 32.4985 0.630792C34.4445 0.222283 36.4354 0.222283 38.4264 0.540679C39.964 0.856072 40.5075 1.57997 40.5526 3.21101C40.5976 4.70387 40.5526 6.19673 40.5526 7.73765C40.5526 7.73765 40.5526 7.73765 40.5075 7.73765C40.4565 11.0418 40.2763 14.2528 40.3664 17.5569Z" fill="#E4791D"/>
<path d="M73.03 34.0294C72.8949 35.0236 72.3514 35.6574 71.3574 35.7956C70.2703 35.9308 67.9189 36.0659 66.8769 35.9758C64.7508 35.8407 63.8469 34.7533 63.8469 32.6266C63.8469 31.4942 63.8469 30.4099 63.8469 29.2324C63.937 21.3146 63.8919 11.7657 64.2553 3.84779C64.2553 3.30411 64.2553 2.71538 64.3003 2.12965C64.3454 1.04229 64.9339 0.363449 66.018 0.363449C67.4655 0.318393 70.1802 0.318393 71.5826 0.453561C72.7598 0.543674 73.1652 1.08735 73.2102 2.30987C73.3003 3.25906 73.2102 4.21124 73.2102 5.20548C73.2102 21.1794 73.2102 27.3791 73.1652 31.8126C73.1652 32.5335 73.1201 33.3055 73.03 34.0294Z" fill="#E4791D"/>
<path d="M84.9279 30.4519C84.7928 31.4462 84.6577 32.3984 84.6126 33.3926C84.5225 35.0206 83.4805 35.7896 82.0781 36.0179C80.7207 36.153 79.2733 36.153 77.961 36.0179C76.6487 35.9278 75.97 34.8855 75.97 33.5728C75.8799 24.9311 76.1502 11.4443 81.5345 4.83903C83.5706 2.34893 86.3303 0.450566 89.3604 0.267338C97.5496 -0.321396 100.988 10.3569 101.757 16.3314C102.435 21.7621 102.3 27.1929 102.072 32.6206C101.937 34.0234 101.709 35.5613 100.216 35.7866C98.7688 35.8767 97.2763 35.9668 95.7387 35.9668C94.1562 35.9218 93.6577 35.333 93.5676 33.5248C93.4775 32.2572 93.3423 31.1728 93.2042 30.0404C90.4024 30.2267 87.6877 30.3618 84.9279 30.4519ZM92.3484 16.9231C91.7598 12.3544 90.1772 10.2247 88.9099 10.5431C86.5135 11.1769 84.7478 19.23 84.8378 22.6693C87.5976 22.5341 90.0871 22.3989 92.6637 22.2607C92.6637 20.8159 92.5736 18.8695 92.3484 16.9231Z" fill="#E4791D"/>
<path d="M132.655 35.8827C130.709 36.108 128.763 36.108 126.82 35.8376C125.871 35.6574 124.964 35.2489 124.285 34.5701C123.607 33.8912 123.198 33.1223 123.243 32.1731C123.288 29.8211 123.468 27.4662 123.378 25.1143C123.243 18.3709 123.108 12.6698 123.108 6.87856C123.153 5.52087 123.153 4.07307 123.153 2.62526C123.198 0.997235 123.562 0.633782 125.144 0.318389C127.859 -0.180232 130.529 -0.0901195 133.243 0.588726C144.736 3.214 147.177 14.5261 144.871 24.4805C143.829 29.0041 140.03 34.7983 132.655 35.8827ZM134.282 25.7481C136.772 23.8016 137.042 20.047 137.132 17.2415C137.177 12.8079 135.955 7.83075 131.252 8.68982C131.841 14.6192 131.796 20.5906 131.477 26.5651C132.61 26.6973 133.468 26.3368 134.282 25.7481Z" fill="#E4791D"/>
<path d="M171.697 29.728C170.658 31.4462 169.39 32.8489 167.853 33.9813C163.192 37.2854 157.628 36.8319 153.42 32.8489C150.841 30.3588 149.258 27.2379 148.489 23.7536C147.312 18.458 147.766 13.3006 150.027 8.41348C151.249 6.15166 152.742 4.11512 154.733 2.53215C159.438 -0.997247 165.138 -0.636798 169.435 3.52639C172.06 6.01649 173.598 9.18244 174.366 12.7118C174.73 14.3399 174.91 15.9709 175 16.875C175 21.9904 174.006 26.0635 171.697 29.728ZM157.673 23.9819C158.171 25.0212 158.76 25.9283 159.483 26.6973C160.931 28.1451 162.787 28.1451 164.189 26.7874C164.733 26.2887 165.276 25.7481 165.592 25.1143C167.853 20.7258 167.898 16.3343 165.637 11.9008C165.273 11.0868 164.595 10.3629 163.871 9.72912C162.694 8.77993 161.291 8.77993 159.979 9.59395C159.12 10.2728 158.486 11.0868 157.988 11.9939C156.946 13.9854 156.496 16.2022 156.586 18.6472C156.496 20.4074 156.859 22.3088 157.673 23.9819Z" fill="#E4791D"/>
<path d="M5.32433 57.9182C5.34835 58.5549 5.3003 59.2158 5.27327 59.8255C5.24925 60.3332 4.94294 60.6906 4.43243 60.7657C4.2042 60.8168 3.94895 60.8678 3.72072 60.8678C3.06006 60.8438 2.42342 60.8168 1.78679 60.7927C0.870871 60.7176 0.360361 60.234 0.312313 59.3179C0.288289 58.6811 0.336337 58.0443 0.363364 57.4075C0.414415 56.1099 0.516517 54.8123 0.567568 53.5147C0.642643 51.6073 0.744745 49.6729 0.744745 47.7895C0.768769 46.0083 0.66967 43.9988 0.618619 42.2146C0.567568 41.1453 0.795796 40.7397 1.86487 40.6617C2.65466 40.6106 3.51952 40.6617 4.35736 40.7878C4.94294 40.8629 5.32433 41.3225 5.68168 41.8301C5.98799 42.2386 6.24024 42.6712 6.4955 43.1277C7.69069 45.4436 8.91291 48.168 10.2613 50.2526C10.2613 49.3605 10.2853 48.4444 10.2613 47.5552C10.2613 45.9002 10.2102 43.8126 10.2102 42.2116C10.2102 41.3705 10.6426 40.8869 11.4835 40.7367C12.2973 40.5836 13.1111 40.5595 13.9009 40.7608C14.7417 40.938 15.1982 41.3976 15.2492 42.2626C15.3243 43.2809 15.3243 44.7828 15.3243 45.8251C15.3754 47.5552 15.3754 49.2854 15.3754 51.0186C15.3994 52.214 15.3994 53.4366 15.4264 54.6321C15.4505 56.1069 15.5015 57.5577 15.5285 59.0085C15.5285 59.6964 15.4264 60.3332 14.7658 60.5104C13.6727 60.8408 12.7808 60.7657 11.7898 60.7657C11.027 60.8168 10.5165 60.4593 10.1862 59.8255C10.033 59.4951 9.82883 59.1647 9.7027 58.8583C9.16817 57.4315 8.48048 56.0829 7.59159 54.8633C6.72673 53.6679 6.11411 52.3702 5.3003 51.1717C5.24925 51.1207 5.22523 51.0456 5.17417 50.9945C5.15015 50.9945 5.12312 51.0186 5.07207 51.0186C5.17117 53.3374 5.27327 55.6293 5.32433 57.9182Z" fill="#E4791D"/>
<path d="M22.3724 50.4118C22.042 55.6804 26.3423 56.8008 27.8949 53.6198C29.1922 50.8954 28.8859 45.0952 28.7357 42.1665C28.7117 41.4276 29.0661 40.944 29.7537 40.7668C30.6697 40.5385 31.5856 40.5625 32.4775 40.8179C33.012 40.944 33.4204 41.3255 33.4955 41.8872C34.4625 48.988 34.5646 60.8738 25.2522 61C20.976 61.0511 18.7387 58.5309 17.6937 55.2238C16.6246 51.7365 16.8528 47.8947 16.8288 44.4073C16.8288 43.4401 16.8288 41.0732 17.9489 40.8959C19.042 40.6677 20.1622 40.6677 21.2823 40.8449C22.1471 41.0221 22.4534 41.4306 22.4775 42.3468C22.5015 43.1878 22.4775 44.0258 22.4775 44.8909C22.4775 44.8909 22.4775 44.8909 22.4534 44.8909C22.4234 46.7472 22.3213 48.5525 22.3724 50.4118Z" fill="#E4791D"/>
<path d="M43.7718 46.9996C43.7958 49.9522 43.8469 53.1332 43.9249 56.0859C43.949 57.0291 44.027 57.9452 44.027 58.8854C44.027 59.3179 43.8739 59.7745 43.7478 60.21C43.5946 60.6426 43.1892 60.8468 42.7297 60.8468C42.0931 60.8468 41.4835 60.8708 40.8709 60.8468C40.6667 60.8468 40.4625 60.8228 40.2613 60.7717C39.3694 60.4924 39.1922 60.2641 39.2192 59.3449C39.2433 56.4944 39.2943 53.6438 39.2943 50.7933C39.3183 49.3665 39.2433 47.6634 39.2192 46.2126C39.2192 45.9843 39.1682 45.729 39.1682 45.5247C38.3544 45.5247 37.6427 45.5247 36.9279 45.5488C35.3243 45.5488 35.1472 45.3445 35.0961 43.8186C35.0721 43.311 35.0721 42.8003 35.0721 42.3167C35.0721 41.5778 35.2763 41.2474 35.988 41.0431C36.4204 40.941 36.8799 40.8389 37.3363 40.8149C38.964 40.7398 40.5676 40.6617 42.1712 40.6376C43.4955 40.6376 44.8439 40.6617 46.1411 40.6887C46.3694 40.6887 46.5736 40.7638 46.8018 40.8149C47.3363 40.968 47.6427 41.3225 47.6667 41.8572C47.7177 42.6201 47.7177 43.4341 47.6907 44.2241C47.6667 44.9871 47.3604 45.2424 46.6487 45.2934C45.6817 45.3445 44.7658 45.4196 43.7478 45.4707C43.7478 46.0083 43.7478 46.516 43.7718 46.9996Z" fill="#E4791D"/>
<path d="M57.5646 54.7642C58.2252 55.2208 58.9399 55.6293 59.6757 56.0378C60.0841 56.2661 60.4895 56.3953 60.8979 56.5725C61.6877 56.9299 61.8378 57.2333 61.7868 58.0984C61.7627 58.7592 61.5585 59.372 61.1501 59.9307C60.7177 60.5164 60.1591 60.7957 59.3694 60.6936C58.2763 60.5915 57.2312 60.1589 56.4174 59.42C55.6546 58.7081 54.9399 57.9182 54.2282 57.1792C54 56.9239 53.8198 56.6446 53.4895 56.4403C53.5135 57.0501 53.5916 57.6869 53.5916 58.3237C53.6156 58.8073 53.6156 59.3149 53.5676 59.7985C53.5165 60.4353 53.2372 60.7146 52.6276 60.8168C51.8889 60.8919 51.1772 60.9429 50.4384 60.8919C49.6997 60.8408 49.3183 60.4083 49.2432 59.6453C49.1682 59.0085 49.1171 58.3717 49.1171 57.7349C48.991 52.3642 48.9129 47.2999 49.0661 42.2086C49.0661 42.0043 49.1171 41.8271 49.1682 41.6229C49.2943 41.2143 49.5255 41.0131 49.9309 40.962C51.1261 40.7848 52.2973 40.7848 53.4925 40.938C54.027 40.9891 54.5616 41.0401 55.1201 41.1423C59.4204 42.0344 61.6336 44.96 61.1261 49.1352C60.7958 51.6283 59.3453 53.6649 56.8528 54.0974C57.1051 54.3317 57.2823 54.611 57.5646 54.7642ZM53.5165 50.7933C53.6697 50.8173 53.7958 50.8684 53.8979 50.8684C56.009 50.7152 57.2823 48.6546 56.4174 46.9245C56.009 45.9813 54.5585 45.3205 53.5165 45.5998C53.5165 47.33 53.5165 49.0631 53.5165 50.7933Z" fill="#E4791D"/>
<path d="M68.6847 59.6753C68.6096 60.234 68.3033 60.5915 67.7448 60.6666C67.1351 60.7417 65.8108 60.8198 65.2252 60.7687C64.03 60.6936 63.5195 60.0808 63.5195 58.8854C63.5195 58.2486 63.5195 57.6388 63.5195 56.975C63.5706 52.5204 63.5436 47.1497 63.7478 42.6982C63.7478 42.3918 63.7478 42.0614 63.7718 41.731C63.7958 41.1212 64.1291 40.7398 64.7387 40.7398C65.5526 40.7157 67.0811 40.7157 67.8679 40.7908C68.5285 40.8419 68.7568 41.1483 68.7838 41.8331C68.8348 42.3678 68.7838 42.9024 68.7838 43.4611C68.7838 52.4453 68.7838 55.9327 68.7598 58.4258C68.7598 58.8343 68.7357 59.2668 68.6847 59.6753Z" fill="#E4791D"/>
<path d="M70.5916 47.357C71.0991 44.7858 73.1111 41.731 75.9099 40.8929C78.8859 40.0038 82.1952 41.8602 83.1111 44.4824C83.4174 45.4256 83.3153 46.2907 82.5525 46.9755C81.8408 47.5853 81.051 47.6874 80.1351 47.4591C79.7027 47.357 79.3724 47.0506 79.2432 46.6181C79.1922 46.4138 79.1411 46.2096 79.039 45.9813C78.6817 45.0651 77.7928 44.7347 76.9009 45.2183C76.6727 45.3956 76.4174 45.5998 76.2913 45.8281C76.012 46.1585 75.7567 46.54 75.6036 46.9485C74.9159 48.8559 74.6366 50.8684 75.1952 52.8539C76.06 56.8759 78.3513 57.3595 80.4354 53.6438C80.7658 53.0851 81.1471 52.8539 81.8108 53.0341C82.2943 53.1362 82.7778 53.3134 83.2613 53.5177C84.3543 53.8992 84.1261 55.0196 83.8979 55.8336C83.1351 58.5309 80.7688 61.027 77.4594 60.8228C70.033 60.4653 69.5495 52.6766 70.5916 47.357Z" fill="#E4791D"/>
<path d="M90.7177 59.6753C90.6426 60.234 90.3363 60.5915 89.7778 60.6666C89.1682 60.7417 87.8438 60.8198 87.2583 60.7687C86.0631 60.6936 85.5526 60.0808 85.5526 58.8854C85.5526 58.2486 85.5526 57.6388 85.5526 56.975C85.6036 52.5204 85.5766 47.1497 85.7808 42.6982C85.7808 42.3918 85.7808 42.0614 85.8048 41.731C85.8288 41.1212 86.1622 40.7398 86.7718 40.7398C87.5856 40.7157 89.1141 40.7157 89.9009 40.7908C90.5616 40.8419 90.7898 41.1483 90.8168 41.8331C90.8679 42.3678 90.8168 42.9024 90.8168 43.4611C90.8168 52.4453 90.8168 55.9327 90.7928 58.4258C90.7958 58.8343 90.7688 59.2668 90.7177 59.6753Z" fill="#E4791D"/>
<path d="M105.655 57.2573C105.069 58.2245 104.357 59.0145 103.492 59.6483C100.871 61.5046 97.7417 61.2523 95.3753 59.0115C93.9249 57.6118 93.033 55.8546 92.6006 53.8961C91.9399 50.9194 92.1922 48.0178 93.4654 45.2694C94.1531 43.9958 94.991 42.8514 96.1111 41.9593C98.7567 39.9738 101.964 40.1781 104.381 42.518C105.856 43.9177 106.721 45.6989 107.156 47.6844C107.36 48.6005 107.462 49.5167 107.513 50.0243C107.513 52.9049 106.952 55.1968 105.655 57.2573ZM97.7687 54.0253C98.048 54.611 98.3783 55.1187 98.7868 55.5512C99.6006 56.3652 100.646 56.3652 101.432 55.6023C101.739 55.3229 102.042 55.0165 102.222 54.6621C103.495 52.193 103.519 49.7239 102.246 47.2308C102.042 46.7713 101.661 46.3658 101.255 46.0083C100.595 45.4737 99.8048 45.4737 99.066 45.9332C98.5826 46.3147 98.2252 46.7743 97.9459 47.2819C97.3603 48.4023 97.1051 49.6489 97.1561 51.0246C97.1051 52.0158 97.3093 53.0821 97.7687 54.0253Z" fill="#E4791D"/>
<path d="M113.901 57.9182C113.925 58.5549 113.877 59.2158 113.85 59.8255C113.826 60.3332 113.52 60.6906 113.009 60.7657C112.781 60.8168 112.526 60.8678 112.297 60.8678C111.637 60.8438 111 60.8168 110.363 60.7927C109.447 60.7176 108.937 60.234 108.889 59.3179C108.865 58.6811 108.913 58.0443 108.94 57.4075C108.991 56.1099 109.093 54.8123 109.144 53.5147C109.219 51.6073 109.321 49.6729 109.321 47.7895C109.345 46.0083 109.246 43.9988 109.195 42.2146C109.144 41.1453 109.372 40.7397 110.441 40.6617C111.231 40.6106 112.096 40.6617 112.934 40.7878C113.52 40.8629 113.901 41.3225 114.258 41.8301C114.565 42.2386 114.817 42.6712 115.072 43.1277C116.267 45.4436 117.49 48.168 118.838 50.2526C118.838 49.3605 118.862 48.4444 118.838 47.5552C118.838 45.9002 118.787 43.8126 118.787 42.2116C118.787 41.3705 119.219 40.8869 120.06 40.7367C120.874 40.5836 121.688 40.5595 122.478 40.7608C123.318 40.938 123.775 41.3976 123.826 42.2626C123.901 43.2809 123.901 44.7828 123.901 45.8251C123.952 47.5552 123.952 49.2854 123.952 51.0186C123.976 52.214 123.976 53.4366 124.003 54.6321C124.027 56.1069 124.078 57.5577 124.105 59.0085C124.105 59.6964 124.003 60.3332 123.342 60.5104C122.249 60.8408 121.357 60.7657 120.366 60.7657C119.604 60.8168 119.093 60.4593 118.763 59.8255C118.61 59.4951 118.405 59.1647 118.279 58.8583C117.745 57.4315 117.057 56.0829 116.168 54.8633C115.303 53.6679 114.691 52.3702 113.877 51.1717C113.826 51.1207 113.802 51.0456 113.751 50.9945C113.727 50.9945 113.7 51.0186 113.649 51.0186C113.748 53.3374 113.85 55.6293 113.901 57.9182Z" fill="#E4791D"/>
<path d="M131 59.6753C130.925 60.234 130.619 60.5915 130.06 60.6666C129.45 60.7417 128.126 60.8198 127.541 60.7687C126.345 60.6936 125.835 60.0808 125.835 58.8854C125.835 58.2486 125.835 57.6388 125.835 56.975C125.886 52.5204 125.859 47.1497 126.063 42.6982C126.063 42.3918 126.063 42.0614 126.087 41.731C126.111 41.1212 126.444 40.7398 127.054 40.7398C127.868 40.7157 129.396 40.7157 130.183 40.7908C130.844 40.8419 131.072 41.1483 131.099 41.8331C131.15 42.3678 131.099 42.9024 131.099 43.4611C131.099 52.4453 131.099 55.9327 131.075 58.4258C131.075 58.8343 131.051 59.2668 131 59.6753Z" fill="#E4791D"/>
<path d="M141.763 47.3059C141.535 46.7713 141.252 46.2636 140.949 45.78C140.796 45.5517 140.541 45.2964 140.288 45.1192C139.856 44.7618 139.348 44.7377 138.889 45.0441C137.973 45.6028 138.024 46.9275 138.736 47.5372C139.396 48.0719 140.111 48.5795 140.823 49.0631C141.664 49.6729 142.631 50.1835 143.417 50.7933C144.943 51.9647 145.607 53.5417 145.556 55.4251C145.505 56.8008 145.045 58.0203 144.105 58.9875C142.478 60.6426 140.517 61.1502 138.279 60.6666C136.523 60.2851 135.099 59.369 133.877 58.0713C133.165 57.3084 132.733 56.3923 132.502 55.347C132.399 54.8123 132.502 54.3047 132.757 53.821C133.189 53.007 133.799 52.3943 134.742 52.193C135.532 52.0158 136.294 52.3192 136.676 53.007C136.955 53.4396 137.135 53.8991 137.336 54.3557C138.075 55.9837 140.568 56.5965 140.772 54.9144C140.847 54.3047 140.493 53.5387 139.856 53.0551C139.093 52.5204 138.303 51.9347 137.49 51.4781C136.165 50.7152 135.072 49.772 134.105 48.6005C132.171 45.774 133.547 41.9082 136.88 40.914C138.736 40.3793 140.544 40.3042 141.97 40.8899C144.057 41.7821 147.162 44.4524 145.201 47.0506C144.231 48.3242 142.502 48.934 141.763 47.3059Z" fill="#E4791D"/>
<path d="M155.631 46.9996C155.655 49.9522 155.706 53.1332 155.784 56.0859C155.808 57.0291 155.886 57.9452 155.886 58.8854C155.886 59.3179 155.733 59.7745 155.607 60.21C155.453 60.6426 155.048 60.8468 154.589 60.8468C153.952 60.8468 153.342 60.8708 152.73 60.8468C152.526 60.8468 152.321 60.8228 152.12 60.7717C151.228 60.4924 151.051 60.2641 151.078 59.3449C151.102 56.4944 151.153 53.6438 151.153 50.7933C151.177 49.3665 151.102 47.6634 151.078 46.2126C151.078 45.9843 151.027 45.729 151.027 45.5247C150.213 45.5247 149.501 45.5247 148.787 45.5488C147.183 45.5488 147.006 45.3445 146.955 43.8186C146.931 43.311 146.931 42.8003 146.931 42.3167C146.931 41.5778 147.135 41.2474 147.847 41.0431C148.279 40.941 148.739 40.8389 149.195 40.8149C150.823 40.7398 152.426 40.6617 154.03 40.6376C155.354 40.6376 156.703 40.6617 158 40.6887C158.228 40.6887 158.432 40.7638 158.661 40.8149C159.195 40.968 159.501 41.3225 159.525 41.8572C159.577 42.6201 159.577 43.4341 159.55 44.2241C159.525 44.9871 159.219 45.2424 158.507 45.2934C157.541 45.3445 156.625 45.4196 155.607 45.4707C155.604 46.0083 155.604 46.516 155.631 46.9996Z" fill="#E4791D"/>
<path d="M164.459 57.6658C164.384 58.2245 164.306 58.7592 164.282 59.3209C164.231 60.2371 163.646 60.6696 162.856 60.7957C162.093 60.8708 161.279 60.8708 160.541 60.7957C159.802 60.7447 159.42 60.159 159.42 59.42C159.369 54.56 159.523 46.9755 162.55 43.2599C163.694 41.8602 165.246 40.7908 166.952 40.6887C171.559 40.3583 173.492 46.3658 173.925 49.7239C174.306 52.7788 174.231 55.8336 174.102 58.8854C174.027 59.6753 173.898 60.5404 173.06 60.6666C172.246 60.7176 171.405 60.7687 170.541 60.7687C169.649 60.7447 169.369 60.4113 169.318 59.393C169.267 58.6811 169.192 58.0683 169.114 57.4346C167.538 57.5367 166.012 57.6148 164.459 57.6658ZM168.634 50.0544C168.303 47.4832 167.411 46.2877 166.7 46.4649C165.351 46.8223 164.36 51.352 164.411 53.2864C165.964 53.2113 167.363 53.1332 168.814 53.0581C168.811 52.2441 168.76 51.1477 168.634 50.0544Z" fill="#E4791D"/>
</svg>
