<svg width="175" height="236" viewBox="0 0 175 236" fill="none" xmlns="http://www.w3.org/2000/svg">
    <path d="M103.66 54.3695C97.3898 55.0452 89.7221 42.6019 88.3672 31.4534C86.3241 14.6476 98.7765 2.08038 100.904 0C104.302 3.3364 113.05 12.8503 114.002 26.9388C114.793 38.6286 110.227 53.6619 103.66 54.3695Z" fill="#309C52"/>
    <path d="M102.062 41.0734C98.459 35.8831 105.661 23.1637 114.765 16.6183C128.487 6.75061 145.46 11.6721 148.3 12.5424C147.012 17.1313 142.891 29.3942 131.024 36.9975C121.176 43.3095 105.834 46.5114 102.062 41.0734Z" fill="#309C52"/>
    <path d="M83.6425 164C121.318 164 151.861 133.376 151.861 95.5986C151.861 57.8215 121.318 27.1971 83.6425 27.1971C45.9666 27.1971 15.4243 57.8215 15.4243 95.5986C15.4243 133.376 45.9666 164 83.6425 164Z" fill="#F6A117"/>
    <path d="M15.4666 97.9585C16.5498 99.4763 18.18 101.617 20.3642 103.991C20.3642 103.991 32.2662 116.926 48.9458 122.138C71.6805 129.242 105.191 118.784 121.282 92.6549C133.508 72.7958 130.746 51.8929 129.511 44.9689C134.623 49.7099 144.828 60.5045 149.444 77.5014C155.082 98.2699 150.686 122.078 135.763 139.732C116.85 162.111 86.4018 168.232 62.4215 160.625C43.5082 154.624 32.6331 141.36 29.288 136.934C17.0332 120.726 15.6747 103.906 15.4666 97.9585Z" fill="#E4791D"/>
    <path opacity="0.8" d="M59.3678 61.9882C72.9345 52.2394 81.228 40.5524 77.8917 35.8846C74.5555 31.2168 60.8529 35.3358 47.2862 45.0846C33.7194 54.8335 25.426 66.5205 28.7623 71.1883C32.0985 75.8561 45.8011 71.7371 59.3678 61.9882Z" fill="#FFD453"/>
    <path d="M53.3284 45.305C54.0059 46.4831 56.9523 44.4205 59.8386 42.7469C62.725 41.077 66.5712 39.0284 65.8937 37.8538C65.2162 36.6792 61.5818 38.4553 58.6954 40.1252C55.809 41.7952 52.6509 44.1268 53.3284 45.305Z" fill="white"/>
    <path d="M39.447 124.342C42.4832 124.342 44.9445 121.874 44.9445 118.829C44.9445 115.785 42.4832 113.317 39.447 113.317C36.4108 113.317 33.9495 115.785 33.9495 118.829C33.9495 121.874 36.4108 124.342 39.447 124.342Z" fill="#CC6615"/>
    <path d="M27.7179 102.806C29.3978 102.806 30.7596 101.211 30.7596 99.2429C30.7596 97.2752 29.3978 95.6801 27.7179 95.6801C26.0381 95.6801 24.6763 97.2752 24.6763 99.2429C24.6763 101.211 26.0381 102.806 27.7179 102.806Z" fill="#CC6615"/>
    <path d="M104.532 154.773C109.811 154.773 114.091 150.482 114.091 145.188C114.091 139.895 109.811 135.604 104.532 135.604C99.2526 135.604 94.9729 139.895 94.9729 145.188C94.9729 150.482 99.2526 154.773 104.532 154.773Z" fill="#CC6615"/>
    <path d="M113.067 145.192C115.708 145.192 117.849 143.045 117.849 140.398C117.849 137.75 115.708 135.604 113.067 135.604C110.427 135.604 108.286 137.75 108.286 140.398C108.286 143.045 110.427 145.192 113.067 145.192Z" fill="#CC6615"/>
    <path d="M110.192 122.523C113.228 122.523 115.689 120.055 115.689 117.011C115.689 113.967 113.228 111.499 110.192 111.499C107.155 111.499 104.694 113.967 104.694 117.011C104.694 120.055 107.155 122.523 110.192 122.523Z" fill="#CC6615"/>
    <path d="M65.9713 140.398C67.6512 140.398 69.013 138.803 69.013 136.835C69.013 134.867 67.6512 133.272 65.9713 133.272C64.2915 133.272 62.9297 134.867 62.9297 136.835C62.9297 138.803 64.2915 140.398 65.9713 140.398Z" fill="#CC6615"/>
    <path d="M140.167 115.061C142.129 115.061 143.72 113.466 143.72 111.499C143.72 109.531 142.129 107.936 140.167 107.936C138.205 107.936 136.614 109.531 136.614 111.499C136.614 113.466 138.205 115.061 140.167 115.061Z" fill="#CC6615"/>
    <path d="M80.721 127.183C81.5044 127.183 82.1395 126.546 82.1395 125.761C82.1395 124.975 81.5044 124.338 80.721 124.338C79.9376 124.338 79.3025 124.975 79.3025 125.761C79.3025 126.546 79.9376 127.183 80.721 127.183Z" fill="#CC6615"/>
    <path d="M91.3914 133.272C92.1748 133.272 92.8099 132.635 92.8099 131.85C92.8099 131.064 92.1748 130.427 91.3914 130.427C90.608 130.427 89.9729 131.064 89.9729 131.85C89.9729 132.635 90.608 133.272 91.3914 133.272Z" fill="#CC6615"/>
    <path d="M113.067 81.0499C113.851 81.0499 114.486 80.4131 114.486 79.6276C114.486 78.8421 113.851 78.2053 113.067 78.2053C112.284 78.2053 111.649 78.8421 111.649 79.6276C111.649 80.4131 112.284 81.0499 113.067 81.0499Z" fill="#CC6615"/>
    <path d="M129.331 97.1023C130.114 97.1023 130.749 96.4655 130.749 95.68C130.749 94.8945 130.114 94.2577 129.331 94.2577C128.547 94.2577 127.912 94.8945 127.912 95.68C127.912 96.4655 128.547 97.1023 129.331 97.1023Z" fill="#CC6615"/>
    <path d="M114.582 70.7064C117.618 70.7064 120.079 68.2384 120.079 65.1941C120.079 62.1497 117.618 59.6818 114.582 59.6818C111.545 59.6818 109.084 62.1497 109.084 65.1941C109.084 68.2384 111.545 70.7064 114.582 70.7064Z" fill="#CC6615"/>
    <g clip-path="url(#clip0_0_1)">
        <path d="M14.7597 199.931C12.4083 200.111 11.7747 199.661 11.5915 197.579C11.5465 196.492 11.5465 195.362 11.5915 194.275C11.6366 193.188 12.1801 192.647 13.4474 192.509C14.9399 192.374 16.3873 192.329 17.8348 192.239C20.051 192.239 22.3122 192.239 24.5765 192.329C26.8378 192.374 27.6996 193.188 27.8348 195.134C28.105 198.483 27.4714 201.694 25.9339 204.818C21.9519 213.054 10.5074 212.964 5.12304 207.035C-1.48356 199.703 -1.97906 185.72 5.25818 179.07C13.9429 171.014 27.3813 175.856 27.7417 186.763C27.7867 188.165 27.3333 188.619 25.7957 189.16C24.5735 189.523 23.3543 189.568 22.1771 189.523C20.9098 189.478 20.096 188.979 19.6876 187.985C19.5074 187.487 19.3242 186.946 19.099 186.402C17.4293 182.557 13.2221 183.053 10.8257 185.814C7.38731 189.842 8.20112 197.985 11.1891 201.199C13.8588 204.094 17.6576 202.827 18.3363 199.751C17.0239 199.841 15.8918 199.841 14.7597 199.931Z" fill="#E4791D"/>
        <path d="M40.3664 192.557C39.7778 201.922 47.4235 203.914 50.1833 198.258C52.4896 193.416 51.949 183.098 51.6757 177.896C51.6307 176.583 52.2643 175.724 53.4866 175.405C55.1142 174.997 56.7448 175.042 58.3274 175.496C59.2763 175.721 60.0001 176.4 60.1382 177.397C61.8559 190.022 62.0391 211.153 45.4806 211.381C37.88 211.471 33.898 206.993 32.0451 201.108C30.1442 194.909 30.5526 188.075 30.5076 181.876C30.5076 180.157 30.5076 175.949 32.4986 175.631C34.4445 175.222 36.4355 175.222 38.4265 175.541C39.964 175.856 40.5076 176.58 40.5526 178.211C40.5977 179.704 40.5526 181.197 40.5526 182.738C40.5526 182.738 40.5526 182.738 40.5076 182.738C40.4565 186.042 40.2763 189.253 40.3664 192.557Z" fill="#E4791D"/>
        <path d="M73.0301 209.029C72.895 210.024 72.3514 210.657 71.3574 210.796C70.2703 210.931 67.919 211.066 66.877 210.976C64.7508 210.841 63.8469 209.753 63.8469 207.627C63.8469 206.494 63.8469 205.41 63.8469 204.232C63.937 196.315 63.892 186.766 64.2553 178.848C64.2553 178.304 64.2553 177.715 64.3004 177.13C64.3454 176.042 64.934 175.363 66.0181 175.363C67.4655 175.318 70.1803 175.318 71.5827 175.454C72.7598 175.544 73.1652 176.087 73.2103 177.31C73.3004 178.259 73.2103 179.211 73.2103 180.206C73.2103 196.179 73.2103 202.379 73.1652 206.813C73.1652 207.534 73.1202 208.306 73.0301 209.029Z" fill="#E4791D"/>
        <path d="M84.928 205.452C84.7929 206.446 84.6577 207.398 84.6127 208.393C84.5226 210.021 83.4806 210.79 82.0781 211.018C80.7208 211.153 79.2733 211.153 77.961 211.018C76.6487 210.928 75.97 209.886 75.97 208.573C75.8799 199.931 76.1502 186.444 81.5346 179.839C83.5706 177.349 86.3304 175.451 89.3604 175.267C97.5496 174.679 100.988 185.357 101.757 191.331C102.436 196.762 102.3 202.193 102.072 207.621C101.937 209.023 101.709 210.561 100.216 210.787C98.7688 210.877 97.2763 210.967 95.7388 210.967C94.1562 210.922 93.6577 210.333 93.5676 208.525C93.4775 207.257 93.3424 206.173 93.2043 205.04C90.4025 205.227 87.6878 205.362 84.928 205.452ZM92.3484 191.923C91.7598 187.354 90.1772 185.225 88.91 185.543C86.5136 186.177 84.7478 194.23 84.8379 197.669C87.5977 197.534 90.0872 197.399 92.6637 197.261C92.6637 195.816 92.5736 193.87 92.3484 191.923Z" fill="#E4791D"/>
        <path d="M132.655 210.883C130.709 211.108 128.763 211.108 126.82 210.838C125.871 210.657 124.964 210.249 124.285 209.57C123.607 208.891 123.198 208.122 123.243 207.173C123.288 204.821 123.469 202.466 123.378 200.114C123.243 193.371 123.108 187.67 123.108 181.879C123.153 180.521 123.153 179.073 123.153 177.625C123.198 175.997 123.562 175.634 125.144 175.318C127.859 174.82 130.529 174.91 133.243 175.589C144.736 178.214 147.177 189.526 144.871 199.481C143.829 204.004 140.03 209.798 132.655 210.883ZM134.282 200.748C136.772 198.802 137.042 195.047 137.132 192.242C137.177 187.808 135.955 182.831 131.252 183.69C131.841 189.619 131.796 195.591 131.478 201.565C132.61 201.697 133.469 201.337 134.282 200.748Z" fill="#E4791D"/>
        <path d="M171.697 204.728C170.658 206.446 169.391 207.849 167.853 208.981C163.192 212.285 157.628 211.832 153.421 207.849C150.841 205.359 149.258 202.238 148.49 198.754C147.312 193.458 147.766 188.301 150.027 183.413C151.249 181.152 152.742 179.115 154.733 177.532C159.439 174.003 165.138 174.363 169.436 178.526C172.06 181.016 173.598 184.182 174.367 187.712C174.73 189.34 174.91 190.971 175 191.875C175 196.99 174.006 201.063 171.697 204.728ZM157.673 198.982C158.171 200.021 158.76 200.928 159.484 201.697C160.931 203.145 162.787 203.145 164.189 201.787C164.733 201.289 165.276 200.748 165.592 200.114C167.853 195.726 167.898 191.334 165.637 186.901C165.273 186.087 164.595 185.363 163.871 184.729C162.694 183.78 161.291 183.78 159.979 184.594C159.12 185.273 158.487 186.087 157.988 186.994C156.946 188.985 156.496 191.202 156.586 193.647C156.496 195.407 156.859 197.309 157.673 198.982Z" fill="#E4791D"/>
        <path d="M5.3242 232.918C5.34823 233.555 5.30018 234.216 5.27315 234.826C5.24913 235.333 4.94282 235.691 4.43231 235.766C4.20408 235.817 3.94883 235.868 3.7206 235.868C3.05994 235.844 2.4233 235.817 1.78667 235.793C0.870749 235.718 0.360239 235.234 0.312191 234.318C0.288167 233.681 0.336215 233.044 0.363242 232.408C0.414293 231.11 0.516395 229.812 0.567446 228.515C0.642521 226.607 0.744623 224.673 0.744623 222.79C0.768647 221.008 0.669548 218.999 0.618497 217.215C0.567446 216.145 0.795674 215.74 1.86474 215.662C2.65453 215.611 3.5194 215.662 4.35724 215.788C4.94282 215.863 5.3242 216.322 5.68156 216.83C5.98787 217.239 6.24012 217.671 6.49537 218.128C7.69057 220.444 8.91279 223.168 10.2611 225.253C10.2611 224.36 10.2852 223.444 10.2611 222.555C10.2611 220.9 10.2101 218.813 10.2101 217.212C10.2101 216.371 10.6425 215.887 11.4834 215.737C12.2972 215.584 13.111 215.56 13.9008 215.761C14.7416 215.938 15.1981 216.398 15.2491 217.263C15.3242 218.281 15.3242 219.783 15.3242 220.825C15.3753 222.555 15.3753 224.285 15.3753 226.019C15.3993 227.214 15.3993 228.437 15.4263 229.632C15.4503 231.107 15.5014 232.558 15.5284 234.009C15.5284 234.696 15.4263 235.333 14.7656 235.51C13.6726 235.841 12.7807 235.766 11.7897 235.766C11.0269 235.817 10.5164 235.459 10.1861 234.826C10.0329 234.495 9.82871 234.165 9.70258 233.858C9.16805 232.432 8.48036 231.083 7.59147 229.863C6.72661 228.668 6.11399 227.37 5.30018 226.172C5.24913 226.121 5.2251 226.046 5.17405 225.995C5.15003 225.995 5.123 226.019 5.07195 226.019C5.17105 228.337 5.27315 230.629 5.3242 232.918Z" fill="#E4791D"/>
        <path d="M22.3725 225.412C22.0422 230.68 26.3425 231.801 27.895 228.62C29.1923 225.895 28.886 220.095 28.7358 217.167C28.7118 216.428 29.0662 215.944 29.7539 215.767C30.6698 215.538 31.5857 215.563 32.4776 215.818C33.0121 215.944 33.4205 216.325 33.4956 216.887C34.4626 223.988 34.5647 235.874 25.2524 236C20.9761 236.051 18.7389 233.531 17.6938 230.224C16.6247 226.736 16.853 222.895 16.8289 219.407C16.8289 218.44 16.8289 216.073 17.9491 215.896C19.0422 215.668 20.1623 215.668 21.2824 215.845C22.1473 216.022 22.4536 216.431 22.4776 217.347C22.5016 218.188 22.4776 219.026 22.4776 219.891C22.4776 219.891 22.4776 219.891 22.4536 219.891C22.4235 221.747 22.3214 223.552 22.3725 225.412Z" fill="#E4791D"/>
        <path d="M43.7717 222C43.7957 224.952 43.8468 228.133 43.9249 231.086C43.9489 232.029 44.027 232.945 44.027 233.885C44.027 234.318 43.8738 234.774 43.7477 235.21C43.5945 235.642 43.1891 235.847 42.7297 235.847C42.093 235.847 41.4834 235.871 40.8708 235.847C40.6666 235.847 40.4624 235.823 40.2612 235.772C39.3693 235.492 39.1921 235.264 39.2192 234.345C39.2432 231.494 39.2942 228.644 39.2942 225.793C39.3183 224.366 39.2432 222.663 39.2192 221.213C39.2192 220.984 39.1681 220.729 39.1681 220.525C38.3543 220.525 37.6426 220.525 36.9279 220.549C35.3243 220.549 35.1471 220.344 35.096 218.819C35.072 218.311 35.072 217.8 35.072 217.317C35.072 216.578 35.2762 216.247 35.9879 216.043C36.4204 215.941 36.8798 215.839 37.3363 215.815C38.9639 215.74 40.5675 215.662 42.1711 215.638C43.4954 215.638 44.8438 215.662 46.1411 215.689C46.3693 215.689 46.5735 215.764 46.8018 215.815C47.3363 215.968 47.6426 216.322 47.6666 216.857C47.7177 217.62 47.7177 218.434 47.6906 219.224C47.6666 219.987 47.3603 220.242 46.6486 220.293C45.6816 220.344 44.7657 220.42 43.7477 220.471C43.7477 221.008 43.7477 221.516 43.7717 222Z" fill="#E4791D"/>
        <path d="M57.5645 229.764C58.2252 230.221 58.9399 230.629 59.6756 231.038C60.084 231.266 60.4894 231.395 60.8978 231.572C61.6876 231.93 61.8378 232.233 61.7867 233.098C61.7627 233.759 61.5585 234.372 61.1501 234.931C60.7176 235.516 60.1591 235.796 59.3693 235.694C58.2762 235.591 57.2312 235.159 56.4173 234.42C55.6546 233.708 54.9399 232.918 54.2282 232.179C53.9999 231.924 53.8197 231.645 53.4894 231.44C53.5134 232.05 53.5915 232.687 53.5915 233.324C53.6155 233.807 53.6155 234.315 53.5675 234.798C53.5164 235.435 53.2372 235.715 52.6276 235.817C51.8888 235.892 51.1771 235.943 50.4384 235.892C49.6996 235.841 49.3182 235.408 49.2432 234.645C49.1681 234.008 49.117 233.372 49.117 232.735C48.9909 227.364 48.9128 222.3 49.066 217.209C49.066 217.004 49.117 216.827 49.1681 216.623C49.2942 216.214 49.5255 216.013 49.9309 215.962C51.1261 215.785 52.2972 215.785 53.4924 215.938C54.027 215.989 54.5615 216.04 55.12 216.142C59.4203 217.034 61.6336 219.96 61.1261 224.135C60.7957 226.628 59.3453 228.665 56.8528 229.097C57.105 229.332 57.2822 229.611 57.5645 229.764ZM53.5164 225.793C53.6696 225.817 53.7957 225.868 53.8978 225.868C56.0089 225.715 57.2822 223.655 56.4173 221.924C56.0089 220.981 54.5585 220.32 53.5164 220.6C53.5164 222.33 53.5164 224.063 53.5164 225.793Z" fill="#E4791D"/>
        <path d="M68.6847 234.675C68.6096 235.234 68.3033 235.592 67.7448 235.667C67.1351 235.742 65.8108 235.82 65.2252 235.769C64.03 235.694 63.5195 235.081 63.5195 233.885C63.5195 233.249 63.5195 232.639 63.5195 231.975C63.5706 227.52 63.5436 222.15 63.7478 217.698C63.7478 217.392 63.7478 217.061 63.7718 216.731C63.7958 216.121 64.1291 215.74 64.7387 215.74C65.5526 215.716 67.0811 215.716 67.8679 215.791C68.5285 215.842 68.7568 216.148 68.7838 216.833C68.8348 217.368 68.7838 217.903 68.7838 218.461C68.7838 227.445 68.7838 230.933 68.7598 233.426C68.7598 233.834 68.7357 234.267 68.6847 234.675Z" fill="#E4791D"/>
        <path d="M70.5917 222.357C71.0992 219.786 73.1112 216.731 75.91 215.893C78.886 215.004 82.1953 216.86 83.1112 219.482C83.4175 220.426 83.3154 221.291 82.5527 221.975C81.8409 222.585 81.0512 222.687 80.1352 222.459C79.7028 222.357 79.3725 222.051 79.2434 221.618C79.1923 221.414 79.1413 221.21 79.0392 220.981C78.6818 220.065 77.7929 219.735 76.901 220.218C76.6728 220.396 76.4175 220.6 76.2914 220.828C76.0121 221.158 75.7569 221.54 75.6037 221.948C74.916 223.856 74.6367 225.868 75.1953 227.854C76.0602 231.876 78.3515 232.359 80.4355 228.644C80.7659 228.085 81.1473 227.854 81.8109 228.034C82.2944 228.136 82.7779 228.313 83.2614 228.518C84.3545 228.899 84.1262 230.02 83.898 230.834C83.1352 233.531 80.7689 236.027 77.4596 235.823C70.0331 235.465 69.5497 227.677 70.5917 222.357Z" fill="#E4791D"/>
        <path d="M90.7176 234.675C90.6426 235.234 90.3363 235.592 89.7777 235.667C89.1681 235.742 87.8438 235.82 87.2582 235.769C86.063 235.694 85.5525 235.081 85.5525 233.885C85.5525 233.249 85.5525 232.639 85.5525 231.975C85.6035 227.52 85.5765 222.15 85.7807 217.698C85.7807 217.392 85.7807 217.061 85.8047 216.731C85.8288 216.121 86.1621 215.74 86.7717 215.74C87.5855 215.716 89.114 215.716 89.9008 215.791C90.5615 215.842 90.7897 216.148 90.8168 216.833C90.8678 217.368 90.8168 217.903 90.8168 218.461C90.8168 227.445 90.8167 230.933 90.7927 233.426C90.7957 233.834 90.7687 234.267 90.7176 234.675Z" fill="#E4791D"/>
        <path d="M105.655 232.257C105.069 233.225 104.357 234.015 103.493 234.648C100.871 236.505 97.7418 236.252 95.3755 234.012C93.925 232.612 93.0331 230.855 92.6007 228.896C91.94 225.919 92.1923 223.018 93.4656 220.269C94.1532 218.996 94.9911 217.851 96.1112 216.959C98.7568 214.974 101.964 215.178 104.381 217.518C105.856 218.918 106.721 220.699 107.156 222.684C107.36 223.601 107.463 224.517 107.514 225.024C107.514 227.905 106.952 230.197 105.655 232.257ZM97.7689 229.025C98.0481 229.611 98.3785 230.119 98.7869 230.551C99.6007 231.365 100.646 231.365 101.433 230.602C101.739 230.323 102.042 230.017 102.222 229.662C103.496 227.193 103.52 224.724 102.246 222.231C102.042 221.771 101.661 221.366 101.255 221.008C100.595 220.474 99.8049 220.474 99.0662 220.933C98.5827 221.315 98.2253 221.774 97.946 222.282C97.3605 223.402 97.1052 224.649 97.1562 226.025C97.1052 227.016 97.3094 228.082 97.7689 229.025Z" fill="#E4791D"/>
        <path d="M113.901 232.918C113.925 233.555 113.877 234.216 113.85 234.826C113.826 235.333 113.519 235.691 113.009 235.766C112.781 235.817 112.525 235.868 112.297 235.868C111.637 235.844 111 235.817 110.363 235.793C109.447 235.718 108.937 235.234 108.889 234.318C108.865 233.681 108.913 233.044 108.94 232.408C108.991 231.11 109.093 229.812 109.144 228.515C109.219 226.607 109.321 224.673 109.321 222.79C109.345 221.008 109.246 218.999 109.195 217.215C109.144 216.145 109.372 215.74 110.441 215.662C111.231 215.611 112.096 215.662 112.934 215.788C113.519 215.863 113.901 216.322 114.258 216.83C114.565 217.239 114.817 217.671 115.072 218.128C116.267 220.444 117.489 223.168 118.838 225.253C118.838 224.36 118.862 223.444 118.838 222.555C118.838 220.9 118.787 218.813 118.787 217.212C118.787 216.371 119.219 215.887 120.06 215.737C120.874 215.584 121.688 215.56 122.477 215.761C123.318 215.938 123.775 216.398 123.826 217.263C123.901 218.281 123.901 219.783 123.901 220.825C123.952 222.555 123.952 224.285 123.952 226.019C123.976 227.214 123.976 228.437 124.003 229.632C124.027 231.107 124.078 232.558 124.105 234.009C124.105 234.696 124.003 235.333 123.342 235.51C122.249 235.841 121.357 235.766 120.366 235.766C119.604 235.817 119.093 235.459 118.763 234.826C118.61 234.495 118.405 234.165 118.279 233.858C117.745 232.432 117.057 231.083 116.168 229.863C115.303 228.668 114.691 227.37 113.877 226.172C113.826 226.121 113.802 226.046 113.751 225.995C113.727 225.995 113.7 226.019 113.649 226.019C113.748 228.337 113.85 230.629 113.901 232.918Z" fill="#E4791D"/>
        <path d="M131 234.675C130.925 235.234 130.619 235.592 130.06 235.667C129.45 235.742 128.126 235.82 127.54 235.769C126.345 235.694 125.835 235.081 125.835 233.885C125.835 233.249 125.835 232.639 125.835 231.975C125.886 227.52 125.859 222.15 126.063 217.698C126.063 217.392 126.063 217.061 126.087 216.731C126.111 216.121 126.444 215.74 127.054 215.74C127.868 215.716 129.396 215.716 130.183 215.791C130.844 215.842 131.072 216.148 131.099 216.833C131.15 217.368 131.099 217.903 131.099 218.461C131.099 227.445 131.099 230.933 131.075 233.426C131.075 233.834 131.051 234.267 131 234.675Z" fill="#E4791D"/>
        <path d="M141.763 222.306C141.535 221.771 141.252 221.264 140.949 220.78C140.796 220.552 140.541 220.296 140.288 220.119C139.856 219.762 139.348 219.738 138.889 220.044C137.973 220.603 138.024 221.927 138.736 222.537C139.396 223.072 140.111 223.579 140.823 224.063C141.664 224.673 142.631 225.183 143.417 225.793C144.943 226.965 145.607 228.542 145.556 230.425C145.505 231.801 145.045 233.02 144.105 233.987C142.478 235.643 140.517 236.15 138.279 235.667C136.523 235.285 135.099 234.369 133.877 233.071C133.165 232.308 132.733 231.392 132.502 230.347C132.399 229.812 132.502 229.305 132.757 228.821C133.189 228.007 133.799 227.394 134.742 227.193C135.532 227.016 136.294 227.319 136.676 228.007C136.955 228.44 137.135 228.899 137.336 229.356C138.075 230.984 140.568 231.596 140.772 229.914C140.847 229.305 140.493 228.539 139.856 228.055C139.093 227.52 138.303 226.935 137.49 226.478C136.165 225.715 135.072 224.772 134.105 223.601C132.171 220.774 133.547 216.908 136.88 215.914C138.736 215.379 140.544 215.304 141.97 215.89C144.057 216.782 147.162 219.452 145.201 222.051C144.231 223.324 142.502 223.934 141.763 222.306Z" fill="#E4791D"/>
        <path d="M155.631 222C155.655 224.952 155.706 228.133 155.784 231.086C155.808 232.029 155.886 232.945 155.886 233.885C155.886 234.318 155.733 234.774 155.607 235.21C155.453 235.642 155.048 235.847 154.589 235.847C153.952 235.847 153.342 235.871 152.73 235.847C152.526 235.847 152.321 235.823 152.12 235.772C151.228 235.492 151.051 235.264 151.078 234.345C151.102 231.494 151.153 228.644 151.153 225.793C151.177 224.366 151.102 222.663 151.078 221.213C151.078 220.984 151.027 220.729 151.027 220.525C150.213 220.525 149.501 220.525 148.787 220.549C147.183 220.549 147.006 220.344 146.955 218.819C146.931 218.311 146.931 217.8 146.931 217.317C146.931 216.578 147.135 216.247 147.847 216.043C148.279 215.941 148.739 215.839 149.195 215.815C150.823 215.74 152.426 215.662 154.03 215.638C155.354 215.638 156.703 215.662 158 215.689C158.228 215.689 158.432 215.764 158.661 215.815C159.195 215.968 159.501 216.322 159.525 216.857C159.577 217.62 159.577 218.434 159.55 219.224C159.525 219.987 159.219 220.242 158.507 220.293C157.541 220.344 156.625 220.42 155.607 220.471C155.604 221.008 155.604 221.516 155.631 222Z" fill="#E4791D"/>
        <path d="M164.46 232.666C164.385 233.225 164.306 233.759 164.282 234.321C164.231 235.237 163.646 235.67 162.856 235.796C162.093 235.871 161.279 235.871 160.541 235.796C159.802 235.745 159.421 235.159 159.421 234.42C159.369 229.56 159.523 221.976 162.55 218.26C163.694 216.86 165.246 215.791 166.952 215.689C171.559 215.358 173.493 221.366 173.925 224.724C174.306 227.779 174.231 230.834 174.102 233.885C174.027 234.675 173.898 235.54 173.06 235.667C172.246 235.718 171.406 235.769 170.541 235.769C169.649 235.745 169.369 235.411 169.318 234.393C169.267 233.681 169.192 233.068 169.114 232.435C167.538 232.537 166.012 232.615 164.46 232.666ZM168.634 225.054C168.303 222.483 167.412 221.288 166.7 221.465C165.351 221.822 164.36 226.352 164.412 228.286C165.964 228.211 167.363 228.133 168.814 228.058C168.811 227.244 168.76 226.148 168.634 225.054Z" fill="#E4791D"/>
    </g>
    <defs>
        <clipPath id="clip0_0_1">
            <rect width="175" height="61" fill="white" transform="translate(0 175)"/>
        </clipPath>
    </defs>
</svg>
