<?xml version="1.0" encoding="UTF-8" standalone="no"?>
<!DOCTYPE svg PUBLIC "-//W3C//DTD SVG 1.1//EN" "http://www.w3.org/Graphics/SVG/1.1/DTD/svg11.dtd">
<svg width="456" height="456" viewBox="-100 -80 456 456" version="1.1" xmlns="http://www.w3.org/2000/svg" xml:space="preserve"
    style="fill-rule:evenodd;clip-rule:evenodd;stroke-linejoin:round;stroke-miterlimit:2;">
    <path d="M154.562 95.1445C143.578 96.3271 130.147 74.5516 127.773 55.0423C124.194 25.6327 146.007 3.64059 149.734 0C155.687 5.83857 171.009 22.4875 172.678 47.1419C174.063 67.5986 166.064 93.9062 154.562 95.1445Z" fill="#309C52"/>
    <path d="M151.762 71.877C145.451 62.794 158.066 40.5357 174.013 29.0814C198.051 11.8134 227.782 20.4257 232.757 21.9488C230.501 29.9792 223.282 51.4389 202.495 64.7444C185.244 75.79 158.369 81.3933 151.762 71.877Z" fill="#309C52"/>
    <path d="M119.497 286.994C185.493 286.994 238.994 233.402 238.994 167.294C238.994 101.185 185.493 47.5939 119.497 47.5939C53.5006 47.5939 0 101.185 0 167.294C0 233.402 53.5006 286.994 119.497 286.994Z" fill="#F6A117"/>
    <path d="M0.0742188 171.424C1.97178 174.08 4.82739 177.826 8.65342 181.98C8.65342 181.98 29.5019 204.616 58.7194 213.736C98.5434 226.169 157.244 207.867 185.429 162.143C206.847 127.39 202.007 90.8105 199.844 78.6937C208.8 86.9903 226.675 105.881 234.76 135.624C244.637 171.968 236.936 213.631 210.796 244.526C177.666 283.688 124.33 294.399 82.3245 281.087C49.1945 270.586 30.1447 247.374 24.2851 239.629C2.81858 211.266 0.438897 181.831 0.0742188 171.424Z" fill="#E4791D"/>
    <path opacity="0.8" d="M76.9751 108.477C100.74 91.417 115.267 70.9652 109.423 62.7968C103.579 54.6283 79.5765 61.8364 55.8118 78.8964C32.0472 95.9565 17.5197 116.408 23.3637 124.577C29.2078 132.745 53.2104 125.537 76.9751 108.477Z" fill="#FFD453"/>
    <path d="M66.3961 79.282C67.5828 81.3437 72.7439 77.7341 77.8 74.8055C82.856 71.8831 89.5933 68.2983 88.4066 66.2427C87.2198 64.1871 80.8534 67.2953 75.7974 70.2176C70.7413 73.14 65.2093 77.2202 66.3961 79.282Z" fill="white"/>
    <path d="M42.0802 217.593C47.3986 217.593 51.7101 213.275 51.7101 207.947C51.7101 202.62 47.3986 198.301 42.0802 198.301C36.7617 198.301 32.4502 202.62 32.4502 207.947C32.4502 213.275 36.7617 217.593 42.0802 217.593Z" fill="#CC6615"/>
    <path d="M21.5345 179.906C24.4771 179.906 26.8626 177.115 26.8626 173.671C26.8626 170.228 24.4771 167.436 21.5345 167.436C18.592 167.436 16.2065 170.228 16.2065 173.671C16.2065 177.115 18.592 179.906 21.5345 179.906Z" fill="#CC6615"/>
    <path d="M156.088 270.846C165.336 270.846 172.833 263.337 172.833 254.074C172.833 244.81 165.336 237.301 156.088 237.301C146.841 237.301 139.344 244.81 139.344 254.074C139.344 263.337 146.841 270.846 156.088 270.846Z" fill="#CC6615"/>
    <path d="M171.04 254.08C175.666 254.08 179.415 250.324 179.415 245.69C179.415 241.057 175.666 237.301 171.04 237.301C166.415 237.301 162.665 241.057 162.665 245.69C162.665 250.324 166.415 254.08 171.04 254.08Z" fill="#CC6615"/>
    <path d="M166.003 214.411C171.321 214.411 175.633 210.092 175.633 204.765C175.633 199.437 171.321 195.118 166.003 195.118C160.684 195.118 156.373 199.437 156.373 204.765C156.373 210.092 160.684 214.411 166.003 214.411Z" fill="#CC6615"/>
    <path d="M88.5426 245.69C91.4852 245.69 93.8706 242.899 93.8706 239.456C93.8706 236.012 91.4852 233.221 88.5426 233.221C85.6 233.221 83.2146 236.012 83.2146 239.456C83.2146 242.899 85.6 245.69 88.5426 245.69Z" fill="#CC6615"/>
    <path d="M218.51 201.353C221.948 201.353 224.734 198.562 224.734 195.118C224.734 191.675 221.948 188.884 218.51 188.884C215.072 188.884 212.286 191.675 212.286 195.118C212.286 198.562 215.072 201.353 218.51 201.353Z" fill="#CC6615"/>
    <path d="M202.662 126.145C207.98 126.145 212.292 121.826 212.292 116.499C212.292 111.171 207.98 106.853 202.662 106.853C197.343 106.853 193.032 111.171 193.032 116.499C193.032 121.826 197.343 126.145 202.662 126.145Z" fill="#CC6615"/>
    <path d="M114.379 222.565C115.751 222.565 116.864 221.451 116.864 220.076C116.864 218.702 115.751 217.587 114.379 217.587C113.007 217.587 111.894 218.702 111.894 220.076C111.894 221.451 113.007 222.565 114.379 222.565Z" fill="#CC6615"/>
    <path d="M133.07 233.221C134.443 233.221 135.555 232.106 135.555 230.732C135.555 229.357 134.443 228.243 133.07 228.243C131.698 228.243 130.586 229.357 130.586 230.732C130.586 232.106 131.698 233.221 133.07 233.221Z" fill="#CC6615"/>
    <path d="M171.04 141.835C172.412 141.835 173.525 140.72 173.525 139.346C173.525 137.971 172.412 136.857 171.04 136.857C169.668 136.857 168.555 137.971 168.555 139.346C168.555 140.72 169.668 141.835 171.04 141.835Z" fill="#CC6615"/>
    <path d="M199.528 169.925C200.9 169.925 202.013 168.811 202.013 167.436C202.013 166.062 200.9 164.947 199.528 164.947C198.156 164.947 197.043 166.062 197.043 167.436C197.043 168.811 198.156 169.925 199.528 169.925Z" fill="#CC6615"/>
</svg>
